<svg width="20" height="23" viewBox="0 0 20 23" fill="none" xmlns="http://www.w3.org/2000/svg">
<path fill-rule="evenodd" clip-rule="evenodd" d="M5.33 0H14.669C18.07 0 19.99 2.1243 20 5.86962V16.1552C20 19.8994 18.07 22.0248 14.669 22.0248H5.33C1.929 22.0248 0 19.8994 0 16.1552V5.86962C0 2.1243 1.929 0 5.33 0ZM10.0489 17.4657C10.4799 17.4657 10.8389 17.1133 10.8789 16.6398V5.4181C10.9189 5.07672 10.7699 4.73423 10.4999 4.54812C10.2189 4.36091 9.87891 4.36091 9.60991 4.54812C9.33891 4.73423 9.18991 5.07672 9.21891 5.4181V16.6398C9.26991 17.1133 9.62891 17.4657 10.0489 17.4657ZM14.6499 17.4657C15.0699 17.4657 15.4289 17.1133 15.4799 16.6398V13.0277C15.5089 12.6742 15.3599 12.3449 15.0889 12.1577C14.8199 11.9705 14.4799 11.9705 14.1999 12.1577C13.9289 12.3449 13.7799 12.6742 13.8199 13.0277V16.6398C13.8599 17.1133 14.2189 17.4657 14.6499 17.4657ZM6.21896 16.6398C6.17896 17.1133 5.81996 17.4657 5.38896 17.4657C4.95896 17.4657 4.59896 17.1133 4.55996 16.6398V9.03018C4.52996 8.68769 4.67896 8.34741 4.94996 8.1602C5.21896 7.97299 5.55996 7.97299 5.82996 8.1602C6.09896 8.34741 6.24996 8.68769 6.21896 9.03018V16.6398Z" fill="#605BFF"/>
</svg>
