<svg width="267" height="76" viewBox="0 0 267 76" fill="none" xmlns="http://www.w3.org/2000/svg">
<g clip-path="url(#clip0_22_2723)">
<path d="M137.78 17.2998L125.956 15.1998V30.7167C125.956 31.4253 126.526 31.9998 127.231 31.9998H147.634C148.338 31.9998 148.909 31.4253 148.909 30.7167V24.9998L137.78 17.2998Z" fill="#185C37"/>
<path d="M137.78 4H127.231C126.526 4 125.956 4.57446 125.956 5.2831V11L137.78 18L144.04 20.1L148.909 18V11L137.78 4Z" fill="#21A366"/>
<path d="M125.956 11H137.78V18H125.956V11Z" fill="#107C41"/>
<path opacity="0.1" d="M134.418 9.60049H125.956V27.1005H134.418C135.122 27.0982 135.691 26.5251 135.693 25.8174V10.8836C135.691 10.1759 135.122 9.60279 134.418 9.60049Z" fill="black"/>
<path opacity="0.2" d="M133.723 10.3002H125.956V27.8002H133.723C134.426 27.7979 134.996 27.2248 134.998 26.5171V11.5833C134.996 10.8757 134.426 10.3025 133.723 10.3002Z" fill="black"/>
<path opacity="0.2" d="M133.723 10.3002H125.956V26.4002H133.723C134.426 26.3979 134.996 25.8248 134.998 25.1172V11.5833C134.996 10.8757 134.426 10.3025 133.723 10.3002Z" fill="black"/>
<path opacity="0.2" d="M133.027 10.3002H125.956V26.4002H133.027C133.731 26.3979 134.3 25.8248 134.302 25.1172V11.5833C134.3 10.8757 133.731 10.3025 133.027 10.3002Z" fill="black"/>
<path d="M120.275 10.3002H133.027C133.731 10.3002 134.302 10.8747 134.302 11.5833V24.4171C134.302 25.1258 133.731 25.7002 133.027 25.7002H120.275C119.571 25.7002 119 25.1258 119 24.4171V11.5833C119 10.8747 119.571 10.3002 120.275 10.3002Z" fill="url(#paint0_linear_22_2723)"/>
<path d="M122.949 22.1706L125.631 17.9881L123.173 13.8287H125.15L126.491 16.4887C126.615 16.7414 126.7 16.929 126.746 17.0529H126.763C126.851 16.8513 126.944 16.6555 127.041 16.4656L128.475 13.8301H130.29L127.77 17.965L130.354 22.1706H128.423L126.874 19.2509C126.801 19.1267 126.739 18.9962 126.689 18.861H126.666C126.62 18.9934 126.56 19.1203 126.486 19.239L124.891 22.1706H122.949Z" fill="white"/>
<path d="M147.634 4H137.78V11H148.909V5.2831C148.909 4.57446 148.338 4 147.634 4Z" fill="#33C481"/>
<path d="M137.78 18H148.909V25H137.78V18Z" fill="#107C41"/>
</g>
<path d="M5.01319 70V68.752C5.57852 68.752 6.10119 68.6453 6.58119 68.432C7.06119 68.208 7.48252 67.8933 7.84519 67.488C8.21852 67.0827 8.50652 66.6187 8.70919 66.096C8.92252 65.5627 9.02919 64.9973 9.02919 64.4C9.02919 63.8027 8.92252 63.2427 8.70919 62.72C8.50652 62.1867 8.21852 61.7173 7.84519 61.312C7.48252 60.9067 7.06119 60.5973 6.58119 60.384C6.10119 60.16 5.57852 60.048 5.01319 60.048V58.8C6.06919 58.8 6.99719 59.04 7.79719 59.52C8.60785 59.9893 9.24252 60.6453 9.70119 61.488C10.1599 62.3307 10.3892 63.3013 10.3892 64.4C10.3892 65.488 10.1599 66.4533 9.70119 67.296C9.24252 68.1387 8.60785 68.8 7.79719 69.28C6.99719 69.76 6.06919 70 5.01319 70ZM2.69319 70V68.752H5.01319V70H2.69319ZM1.60519 70V58.8H2.96519V70H1.60519ZM2.69319 60.048V58.8H5.01319V60.048H2.69319ZM12.9568 65.664C12.9568 64.8 13.1221 64.1013 13.4528 63.568C13.7835 63.024 14.2048 62.624 14.7168 62.368C15.2395 62.1013 15.7888 61.968 16.3648 61.968V63.168C15.8955 63.168 15.4421 63.248 15.0048 63.408C14.5781 63.5573 14.2261 63.808 13.9488 64.16C13.6715 64.512 13.5328 64.992 13.5328 65.6L12.9568 65.664ZM12.2528 70V62H13.5328V70H12.2528ZM21.1951 70.192C20.4164 70.192 19.7231 70.016 19.1151 69.664C18.5177 69.3013 18.0484 68.8053 17.7071 68.176C17.3657 67.5467 17.1951 66.8213 17.1951 66C17.1951 65.1787 17.3604 64.4533 17.6911 63.824C18.0324 63.1947 18.5017 62.704 19.0991 62.352C19.7071 61.9893 20.3951 61.808 21.1631 61.808C21.9524 61.808 22.6457 61.9893 23.2431 62.352C23.8511 62.704 24.3204 63.1947 24.6511 63.824C24.9924 64.4533 25.1631 65.1787 25.1631 66C25.1631 66.8213 24.9924 67.5467 24.6511 68.176C24.3204 68.8053 23.8564 69.3013 23.2591 69.664C22.6617 70.016 21.9737 70.192 21.1951 70.192ZM21.1951 69.008C21.7284 69.008 22.1924 68.88 22.5871 68.624C22.9817 68.368 23.2911 68.016 23.5151 67.568C23.7497 67.12 23.8671 66.5973 23.8671 66C23.8671 65.4027 23.7497 64.88 23.5151 64.432C23.2911 63.984 22.9764 63.632 22.5711 63.376C22.1657 63.12 21.6964 62.992 21.1631 62.992C20.6404 62.992 20.1764 63.12 19.7711 63.376C19.3764 63.632 19.0617 63.984 18.8271 64.432C18.6031 64.88 18.4911 65.4027 18.4911 66C18.4911 66.5867 18.6031 67.1093 18.8271 67.568C19.0617 68.016 19.3817 68.368 19.7871 68.624C20.2031 68.88 20.6724 69.008 21.1951 69.008ZM27.0203 73.2V62H28.2203L28.3003 63.472V73.2H27.0203ZM31.0043 70.192C30.3323 70.192 29.7403 70.016 29.2283 69.664C28.727 69.312 28.3376 68.8213 28.0603 68.192C27.783 67.552 27.6443 66.8213 27.6443 66C27.6443 65.168 27.783 64.4373 28.0603 63.808C28.3376 63.1787 28.727 62.688 29.2283 62.336C29.7403 61.984 30.3323 61.808 31.0043 61.808C31.719 61.808 32.3483 61.984 32.8923 62.336C33.4363 62.688 33.8576 63.1787 34.1563 63.808C34.4656 64.4373 34.6203 65.168 34.6203 66C34.6203 66.8213 34.4656 67.552 34.1563 68.192C33.8576 68.8213 33.4363 69.312 32.8923 69.664C32.3483 70.016 31.719 70.192 31.0043 70.192ZM30.7163 69.024C31.2176 69.024 31.6603 68.896 32.0443 68.64C32.439 68.384 32.7483 68.0267 32.9723 67.568C33.207 67.1093 33.3243 66.5867 33.3243 66C33.3243 65.4133 33.2123 64.8907 32.9883 64.432C32.775 63.9733 32.471 63.616 32.0763 63.36C31.6816 63.104 31.2336 62.976 30.7323 62.976C30.263 62.976 29.8416 63.104 29.4683 63.36C29.1056 63.616 28.8176 63.9733 28.6043 64.432C28.4016 64.8907 28.3003 65.4133 28.3003 66C28.3003 66.5867 28.4016 67.1093 28.6043 67.568C28.8176 68.0267 29.1056 68.384 29.4683 68.64C29.831 68.896 30.247 69.024 30.7163 69.024ZM41.0666 73.392C40.8639 73.392 40.6292 73.3493 40.3626 73.264C40.0959 73.1893 39.8132 73.088 39.5146 72.96L39.9946 71.888C40.2399 71.9947 40.4532 72.0747 40.6346 72.128C40.8266 72.1813 40.9759 72.208 41.0826 72.208C41.3706 72.208 41.6052 72.128 41.7866 71.968C41.9786 71.8187 42.1386 71.6 42.2666 71.312L43.1786 69.136L46.1386 62H47.5146L43.6746 71.12C43.4719 71.5893 43.2586 71.9947 43.0346 72.336C42.8212 72.6773 42.5599 72.9387 42.2506 73.12C41.9412 73.3013 41.5466 73.392 41.0666 73.392ZM42.8266 70L39.3706 62H40.7306L43.7066 69.12L44.0906 70H42.8266ZM52.1169 70.192C51.3383 70.192 50.6449 70.016 50.0369 69.664C49.4396 69.3013 48.9703 68.8053 48.6289 68.176C48.2876 67.5467 48.1169 66.8213 48.1169 66C48.1169 65.1787 48.2823 64.4533 48.6129 63.824C48.9543 63.1947 49.4236 62.704 50.0209 62.352C50.6289 61.9893 51.3169 61.808 52.0849 61.808C52.8743 61.808 53.5676 61.9893 54.1649 62.352C54.7729 62.704 55.2423 63.1947 55.5729 63.824C55.9143 64.4533 56.0849 65.1787 56.0849 66C56.0849 66.8213 55.9143 67.5467 55.5729 68.176C55.2423 68.8053 54.7783 69.3013 54.1809 69.664C53.5836 70.016 52.8956 70.192 52.1169 70.192ZM52.1169 69.008C52.6503 69.008 53.1143 68.88 53.5089 68.624C53.9036 68.368 54.2129 68.016 54.4369 67.568C54.6716 67.12 54.7889 66.5973 54.7889 66C54.7889 65.4027 54.6716 64.88 54.4369 64.432C54.2129 63.984 53.8983 63.632 53.4929 63.376C53.0876 63.12 52.6183 62.992 52.0849 62.992C51.5623 62.992 51.0983 63.12 50.6929 63.376C50.2983 63.632 49.9836 63.984 49.7489 64.432C49.5249 64.88 49.4129 65.4027 49.4129 66C49.4129 66.5867 49.5249 67.1093 49.7489 67.568C49.9836 68.016 50.3036 68.368 50.7089 68.624C51.1249 68.88 51.5943 69.008 52.1169 69.008ZM63.3502 70L63.2702 68.528V62H64.5502V70H63.3502ZM57.6542 66.576V62H58.9342V66.096L57.6542 66.576ZM58.9342 66.096C58.9342 66.8853 59.0249 67.488 59.2062 67.904C59.3875 68.32 59.6382 68.608 59.9582 68.768C60.2889 68.9173 60.6569 68.992 61.0622 68.992C61.7555 68.992 62.2942 68.7413 62.6782 68.24C63.0729 67.7387 63.2702 67.04 63.2702 66.144H63.8942C63.8942 66.9867 63.7715 67.712 63.5262 68.32C63.2809 68.928 62.9235 69.392 62.4542 69.712C61.9955 70.032 61.4355 70.192 60.7742 70.192C59.8035 70.192 59.0355 69.8933 58.4702 69.296C57.9155 68.6987 57.6435 67.792 57.6542 66.576L58.9342 66.096ZM67.4881 65.664C67.4881 64.8 67.6534 64.1013 67.9841 63.568C68.3147 63.024 68.7361 62.624 69.2481 62.368C69.7707 62.1013 70.3201 61.968 70.8961 61.968V63.168C70.4267 63.168 69.9734 63.248 69.5361 63.408C69.1094 63.5573 68.7574 63.808 68.4801 64.16C68.2027 64.512 68.0641 64.992 68.0641 65.6L67.4881 65.664ZM66.7841 70V62H68.0641V70H66.7841ZM79.6474 70.192C78.8688 70.192 78.1808 70.016 77.5834 69.664C76.9861 69.3013 76.5168 68.8053 76.1754 68.176C75.8448 67.5467 75.6794 66.8213 75.6794 66C75.6794 65.1787 75.8448 64.4533 76.1754 63.824C76.5168 63.1947 76.9808 62.704 77.5674 62.352C78.1648 61.9893 78.8474 61.808 79.6154 61.808C80.3514 61.808 80.9914 61.9947 81.5354 62.368C82.0901 62.7307 82.5168 63.2427 82.8154 63.904C83.1141 64.5653 83.2634 65.344 83.2634 66.24H81.9834C81.9834 65.5573 81.8928 64.976 81.7114 64.496C81.5301 64.0053 81.2581 63.6267 80.8954 63.36C80.5434 63.0933 80.1114 62.96 79.5994 62.96C79.0768 62.96 78.6128 63.088 78.2074 63.344C77.8128 63.5893 77.5088 63.9413 77.2954 64.4C77.0821 64.8587 76.9754 65.3973 76.9754 66.016C76.9754 66.624 77.0928 67.152 77.3274 67.6C77.5621 68.0373 77.8874 68.384 78.3034 68.64C78.7194 68.8853 79.1888 69.008 79.7114 69.008C80.2661 69.008 80.7354 68.8747 81.1194 68.608C81.5034 68.3413 81.8074 67.9947 82.0314 67.568L83.1514 68.128C82.9488 68.544 82.6768 68.9067 82.3354 69.216C82.0048 69.5253 81.6101 69.7653 81.1514 69.936C80.7034 70.1067 80.2021 70.192 79.6474 70.192ZM76.5274 66.24L76.5434 65.136H82.4794V66.24H76.5274ZM83.8397 70L87.1037 65.408L89.4077 62H90.9277L87.8877 66.32L85.3917 70H83.8397ZM89.5837 70L87.1197 66.32L84.0477 62H85.5677L87.8877 65.408L91.1197 70H89.5837ZM95.8833 70.192C95.094 70.192 94.3953 70.016 93.7873 69.664C93.1793 69.3013 92.7046 68.8053 92.3633 68.176C92.022 67.5467 91.8513 66.8213 91.8513 66C91.8513 65.1787 92.0166 64.4533 92.3473 63.824C92.6886 63.1947 93.1633 62.704 93.7713 62.352C94.3793 61.9893 95.0726 61.808 95.8513 61.808C96.6193 61.808 97.3073 61.984 97.9153 62.336C98.5233 62.688 98.9873 63.184 99.3073 63.824L98.1393 64.352C97.926 63.9253 97.6166 63.5947 97.2113 63.36C96.806 63.1147 96.342 62.992 95.8193 62.992C95.2966 62.992 94.8326 63.12 94.4273 63.376C94.0326 63.632 93.718 63.9893 93.4833 64.448C93.2593 64.896 93.1473 65.4133 93.1473 66C93.1473 66.5867 93.2593 67.1093 93.4833 67.568C93.718 68.016 94.038 68.368 94.4433 68.624C94.8593 68.88 95.3286 69.008 95.8513 69.008C96.374 69.008 96.838 68.8747 97.2433 68.608C97.6593 68.3413 97.974 67.968 98.1873 67.488L99.3553 68.016C99.0353 68.6987 98.5713 69.232 97.9633 69.616C97.3553 70 96.662 70.192 95.8833 70.192ZM104.476 70.192C103.697 70.192 103.009 70.016 102.412 69.664C101.814 69.3013 101.345 68.8053 101.004 68.176C100.673 67.5467 100.508 66.8213 100.508 66C100.508 65.1787 100.673 64.4533 101.004 63.824C101.345 63.1947 101.809 62.704 102.396 62.352C102.993 61.9893 103.676 61.808 104.444 61.808C105.18 61.808 105.82 61.9947 106.364 62.368C106.918 62.7307 107.345 63.2427 107.644 63.904C107.942 64.5653 108.092 65.344 108.092 66.24H106.812C106.812 65.5573 106.721 64.976 106.54 64.496C106.358 64.0053 106.086 63.6267 105.724 63.36C105.372 63.0933 104.94 62.96 104.428 62.96C103.905 62.96 103.441 63.088 103.036 63.344C102.641 63.5893 102.337 63.9413 102.124 64.4C101.91 64.8587 101.804 65.3973 101.804 66.016C101.804 66.624 101.921 67.152 102.156 67.6C102.39 68.0373 102.716 68.384 103.132 68.64C103.548 68.8853 104.017 69.008 104.54 69.008C105.094 69.008 105.564 68.8747 105.948 68.608C106.332 68.3413 106.636 67.9947 106.86 67.568L107.98 68.128C107.777 68.544 107.505 68.9067 107.164 69.216C106.833 69.5253 106.438 69.7653 105.98 69.936C105.532 70.1067 105.03 70.192 104.476 70.192ZM101.356 66.24L101.372 65.136H107.308V66.24H101.356ZM109.706 70V58.8H110.986V70H109.706ZM119.975 70.192C119.388 70.192 118.876 70.1067 118.439 69.936C118.001 69.7547 117.633 69.52 117.335 69.232C117.047 68.944 116.839 68.6293 116.711 68.288L117.831 67.824C118.012 68.1867 118.284 68.48 118.647 68.704C119.009 68.928 119.409 69.04 119.847 69.04C120.348 69.04 120.769 68.944 121.111 68.752C121.452 68.5493 121.623 68.2667 121.623 67.904C121.623 67.5733 121.495 67.3067 121.239 67.104C120.993 66.9013 120.625 66.736 120.135 66.608L119.367 66.4C118.641 66.208 118.076 65.92 117.671 65.536C117.265 65.1413 117.063 64.6987 117.063 64.208C117.063 63.4507 117.308 62.864 117.799 62.448C118.3 62.0213 119.041 61.808 120.023 61.808C120.492 61.808 120.919 61.8773 121.303 62.016C121.687 62.1547 122.017 62.352 122.295 62.608C122.572 62.8533 122.775 63.1467 122.903 63.488L121.783 63.984C121.644 63.6213 121.415 63.36 121.095 63.2C120.775 63.04 120.385 62.96 119.927 62.96C119.436 62.96 119.052 63.0667 118.775 63.28C118.497 63.4827 118.359 63.7707 118.359 64.144C118.359 64.3573 118.471 64.56 118.695 64.752C118.929 64.9333 119.271 65.0827 119.719 65.2L120.519 65.408C121.041 65.536 121.479 65.728 121.831 65.984C122.183 66.2293 122.449 66.512 122.631 66.832C122.812 67.152 122.903 67.4933 122.903 67.856C122.903 68.336 122.775 68.752 122.519 69.104C122.263 69.456 121.916 69.728 121.479 69.92C121.041 70.1013 120.54 70.192 119.975 70.192ZM124.628 70V58.592H125.908V70H124.628ZM130.26 70V65.904L131.54 65.424V70H130.26ZM130.26 65.904C130.26 65.1147 130.164 64.512 129.972 64.096C129.79 63.68 129.54 63.3973 129.22 63.248C128.9 63.088 128.537 63.008 128.132 63.008C127.428 63.008 126.878 63.2587 126.484 63.76C126.1 64.2507 125.908 64.9493 125.908 65.856H125.284C125.284 65.0133 125.406 64.288 125.652 63.68C125.897 63.072 126.254 62.608 126.724 62.288C127.193 61.968 127.758 61.808 128.42 61.808C129.38 61.808 130.142 62.1067 130.708 62.704C131.273 63.3013 131.55 64.208 131.54 65.424L130.26 65.904ZM137.054 70.192C136.275 70.192 135.587 70.016 134.99 69.664C134.392 69.3013 133.923 68.8053 133.582 68.176C133.251 67.5467 133.086 66.8213 133.086 66C133.086 65.1787 133.251 64.4533 133.582 63.824C133.923 63.1947 134.387 62.704 134.974 62.352C135.571 61.9893 136.254 61.808 137.022 61.808C137.758 61.808 138.398 61.9947 138.942 62.368C139.496 62.7307 139.923 63.2427 140.222 63.904C140.52 64.5653 140.67 65.344 140.67 66.24H139.39C139.39 65.5573 139.299 64.976 139.118 64.496C138.936 64.0053 138.664 63.6267 138.302 63.36C137.95 63.0933 137.518 62.96 137.006 62.96C136.483 62.96 136.019 63.088 135.614 63.344C135.219 63.5893 134.915 63.9413 134.702 64.4C134.488 64.8587 134.382 65.3973 134.382 66.016C134.382 66.624 134.499 67.152 134.734 67.6C134.968 68.0373 135.294 68.384 135.71 68.64C136.126 68.8853 136.595 69.008 137.118 69.008C137.672 69.008 138.142 68.8747 138.526 68.608C138.91 68.3413 139.214 67.9947 139.438 67.568L140.558 68.128C140.355 68.544 140.083 68.9067 139.742 69.216C139.411 69.5253 139.016 69.7653 138.558 69.936C138.11 70.1067 137.608 70.192 137.054 70.192ZM133.934 66.24L133.95 65.136H139.886V66.24H133.934ZM145.788 70.192C145.009 70.192 144.321 70.016 143.724 69.664C143.127 69.3013 142.657 68.8053 142.316 68.176C141.985 67.5467 141.82 66.8213 141.82 66C141.82 65.1787 141.985 64.4533 142.316 63.824C142.657 63.1947 143.121 62.704 143.708 62.352C144.305 61.9893 144.988 61.808 145.756 61.808C146.492 61.808 147.132 61.9947 147.676 62.368C148.231 62.7307 148.657 63.2427 148.956 63.904C149.255 64.5653 149.404 65.344 149.404 66.24H148.124C148.124 65.5573 148.033 64.976 147.852 64.496C147.671 64.0053 147.399 63.6267 147.036 63.36C146.684 63.0933 146.252 62.96 145.74 62.96C145.217 62.96 144.753 63.088 144.348 63.344C143.953 63.5893 143.649 63.9413 143.436 64.4C143.223 64.8587 143.116 65.3973 143.116 66.016C143.116 66.624 143.233 67.152 143.468 67.6C143.703 68.0373 144.028 68.384 144.444 68.64C144.86 68.8853 145.329 69.008 145.852 69.008C146.407 69.008 146.876 68.8747 147.26 68.608C147.644 68.3413 147.948 67.9947 148.172 67.568L149.292 68.128C149.089 68.544 148.817 68.9067 148.476 69.216C148.145 69.5253 147.751 69.7653 147.292 69.936C146.844 70.1067 146.343 70.192 145.788 70.192ZM142.668 66.24L142.684 65.136H148.62V66.24H142.668ZM154.026 70.192C153.248 70.192 152.645 69.9893 152.218 69.584C151.792 69.1787 151.578 68.608 151.578 67.872V59.504H152.858V67.744C152.858 68.1493 152.965 68.464 153.178 68.688C153.402 68.9013 153.712 69.008 154.106 69.008C154.234 69.008 154.357 68.992 154.474 68.96C154.602 68.9173 154.768 68.8213 154.97 68.672L155.466 69.712C155.189 69.8933 154.938 70.016 154.714 70.08C154.49 70.1547 154.261 70.192 154.026 70.192ZM150.186 63.136V62H155.258V63.136H150.186ZM161.018 70V58.592H162.298V70H161.018ZM166.65 70V65.904L167.93 65.424V70H166.65ZM166.65 65.904C166.65 65.1147 166.554 64.512 166.362 64.096C166.181 63.68 165.93 63.3973 165.61 63.248C165.29 63.088 164.928 63.008 164.522 63.008C163.818 63.008 163.269 63.2587 162.874 63.76C162.49 64.2507 162.298 64.9493 162.298 65.856H161.674C161.674 65.0133 161.797 64.288 162.042 63.68C162.288 63.072 162.645 62.608 163.114 62.288C163.584 61.968 164.149 61.808 164.81 61.808C165.77 61.808 166.533 62.1067 167.098 62.704C167.664 63.3013 167.941 64.208 167.93 65.424L166.65 65.904ZM173.444 70.192C172.666 70.192 171.978 70.016 171.38 69.664C170.783 69.3013 170.314 68.8053 169.972 68.176C169.642 67.5467 169.476 66.8213 169.476 66C169.476 65.1787 169.642 64.4533 169.972 63.824C170.314 63.1947 170.778 62.704 171.364 62.352C171.962 61.9893 172.644 61.808 173.412 61.808C174.148 61.808 174.788 61.9947 175.332 62.368C175.887 62.7307 176.314 63.2427 176.612 63.904C176.911 64.5653 177.06 65.344 177.06 66.24H175.78C175.78 65.5573 175.69 64.976 175.508 64.496C175.327 64.0053 175.055 63.6267 174.692 63.36C174.34 63.0933 173.908 62.96 173.396 62.96C172.874 62.96 172.41 63.088 172.004 63.344C171.61 63.5893 171.306 63.9413 171.092 64.4C170.879 64.8587 170.772 65.3973 170.772 66.016C170.772 66.624 170.89 67.152 171.124 67.6C171.359 68.0373 171.684 68.384 172.1 68.64C172.516 68.8853 172.986 69.008 173.508 69.008C174.063 69.008 174.532 68.8747 174.916 68.608C175.3 68.3413 175.604 67.9947 175.828 67.568L176.948 68.128C176.746 68.544 176.474 68.9067 176.132 69.216C175.802 69.5253 175.407 69.7653 174.948 69.936C174.5 70.1067 173.999 70.192 173.444 70.192ZM170.324 66.24L170.34 65.136H176.276V66.24H170.324ZM179.379 65.664C179.379 64.8 179.544 64.1013 179.875 63.568C180.205 63.024 180.627 62.624 181.139 62.368C181.661 62.1013 182.211 61.968 182.787 61.968V63.168C182.317 63.168 181.864 63.248 181.427 63.408C181 63.5573 180.648 63.808 180.371 64.16C180.093 64.512 179.955 64.992 179.955 65.6L179.379 65.664ZM178.675 70V62H179.955V70H178.675ZM187.585 70.192C186.806 70.192 186.118 70.016 185.521 69.664C184.924 69.3013 184.454 68.8053 184.113 68.176C183.782 67.5467 183.617 66.8213 183.617 66C183.617 65.1787 183.782 64.4533 184.113 63.824C184.454 63.1947 184.918 62.704 185.505 62.352C186.102 61.9893 186.785 61.808 187.553 61.808C188.289 61.808 188.929 61.9947 189.473 62.368C190.028 62.7307 190.454 63.2427 190.753 63.904C191.052 64.5653 191.201 65.344 191.201 66.24H189.921C189.921 65.5573 189.83 64.976 189.649 64.496C189.468 64.0053 189.196 63.6267 188.833 63.36C188.481 63.0933 188.049 62.96 187.537 62.96C187.014 62.96 186.55 63.088 186.145 63.344C185.75 63.5893 185.446 63.9413 185.233 64.4C185.02 64.8587 184.913 65.3973 184.913 66.016C184.913 66.624 185.03 67.152 185.265 67.6C185.5 68.0373 185.825 68.384 186.241 68.64C186.657 68.8853 187.126 69.008 187.649 69.008C188.204 69.008 188.673 68.8747 189.057 68.608C189.441 68.3413 189.745 67.9947 189.969 67.568L191.089 68.128C190.886 68.544 190.614 68.9067 190.273 69.216C189.942 69.5253 189.548 69.7653 189.089 69.936C188.641 70.1067 188.14 70.192 187.585 70.192ZM184.465 66.24L184.481 65.136H190.417V66.24H184.465ZM200.304 70.192C199.526 70.192 198.832 70.016 198.224 69.664C197.627 69.3013 197.158 68.8053 196.816 68.176C196.475 67.5467 196.304 66.8213 196.304 66C196.304 65.1787 196.47 64.4533 196.8 63.824C197.142 63.1947 197.611 62.704 198.208 62.352C198.816 61.9893 199.504 61.808 200.272 61.808C201.062 61.808 201.755 61.9893 202.352 62.352C202.96 62.704 203.43 63.1947 203.76 63.824C204.102 64.4533 204.272 65.1787 204.272 66C204.272 66.8213 204.102 67.5467 203.76 68.176C203.43 68.8053 202.966 69.3013 202.368 69.664C201.771 70.016 201.083 70.192 200.304 70.192ZM200.304 69.008C200.838 69.008 201.302 68.88 201.696 68.624C202.091 68.368 202.4 68.016 202.624 67.568C202.859 67.12 202.976 66.5973 202.976 66C202.976 65.4027 202.859 64.88 202.624 64.432C202.4 63.984 202.086 63.632 201.68 63.376C201.275 63.12 200.806 62.992 200.272 62.992C199.75 62.992 199.286 63.12 198.88 63.376C198.486 63.632 198.171 63.984 197.936 64.432C197.712 64.88 197.6 65.4027 197.6 66C197.6 66.5867 197.712 67.1093 197.936 67.568C198.171 68.016 198.491 68.368 198.896 68.624C199.312 68.88 199.782 69.008 200.304 69.008ZM206.754 65.664C206.754 64.8 206.919 64.1013 207.25 63.568C207.58 63.024 208.002 62.624 208.514 62.368C209.036 62.1013 209.586 61.968 210.162 61.968V63.168C209.692 63.168 209.239 63.248 208.802 63.408C208.375 63.5573 208.023 63.808 207.746 64.16C207.468 64.512 207.33 64.992 207.33 65.6L206.754 65.664ZM206.05 70V62H207.33V70H206.05Z" fill="#999CA0"/>
<path d="M215.409 70V58.8H216.689V68.512L216.625 70H215.409ZM219.393 70.192C218.721 70.192 218.129 70.016 217.617 69.664C217.116 69.312 216.726 68.8213 216.449 68.192C216.172 67.552 216.033 66.8213 216.033 66C216.033 65.168 216.172 64.4373 216.449 63.808C216.726 63.1787 217.116 62.688 217.617 62.336C218.129 61.984 218.721 61.808 219.393 61.808C220.108 61.808 220.737 61.984 221.281 62.336C221.825 62.688 222.246 63.1787 222.545 63.808C222.854 64.4373 223.009 65.168 223.009 66C223.009 66.8213 222.854 67.552 222.545 68.192C222.246 68.8213 221.825 69.312 221.281 69.664C220.737 70.016 220.108 70.192 219.393 70.192ZM219.105 69.024C219.606 69.024 220.049 68.896 220.433 68.64C220.828 68.384 221.137 68.0267 221.361 67.568C221.596 67.1093 221.713 66.5867 221.713 66C221.713 65.4133 221.601 64.8907 221.377 64.432C221.164 63.9733 220.86 63.616 220.465 63.36C220.07 63.104 219.622 62.976 219.121 62.976C218.652 62.976 218.23 63.104 217.857 63.36C217.494 63.616 217.206 63.9733 216.993 64.432C216.79 64.8907 216.689 65.4133 216.689 66C216.689 66.5867 216.79 67.1093 216.993 67.568C217.206 68.0267 217.494 68.384 217.857 68.64C218.22 68.896 218.636 69.024 219.105 69.024ZM225.488 65.664C225.488 64.8 225.653 64.1013 225.984 63.568C226.315 63.024 226.736 62.624 227.248 62.368C227.771 62.1013 228.32 61.968 228.896 61.968V63.168C228.427 63.168 227.973 63.248 227.536 63.408C227.109 63.5573 226.757 63.808 226.48 64.16C226.203 64.512 226.064 64.992 226.064 65.6L225.488 65.664ZM224.784 70V62H226.064V70H224.784ZM233.726 70.192C232.948 70.192 232.254 70.016 231.646 69.664C231.049 69.3013 230.58 68.8053 230.238 68.176C229.897 67.5467 229.726 66.8213 229.726 66C229.726 65.1787 229.892 64.4533 230.222 63.824C230.564 63.1947 231.033 62.704 231.63 62.352C232.238 61.9893 232.926 61.808 233.694 61.808C234.484 61.808 235.177 61.9893 235.774 62.352C236.382 62.704 236.852 63.1947 237.182 63.824C237.524 64.4533 237.694 65.1787 237.694 66C237.694 66.8213 237.524 67.5467 237.182 68.176C236.852 68.8053 236.388 69.3013 235.79 69.664C235.193 70.016 234.505 70.192 233.726 70.192ZM233.726 69.008C234.26 69.008 234.724 68.88 235.118 68.624C235.513 68.368 235.822 68.016 236.046 67.568C236.281 67.12 236.398 66.5973 236.398 66C236.398 65.4027 236.281 64.88 236.046 64.432C235.822 63.984 235.508 63.632 235.102 63.376C234.697 63.12 234.228 62.992 233.694 62.992C233.172 62.992 232.708 63.12 232.302 63.376C231.908 63.632 231.593 63.984 231.358 64.432C231.134 64.88 231.022 65.4027 231.022 66C231.022 66.5867 231.134 67.1093 231.358 67.568C231.593 68.016 231.913 68.368 232.318 68.624C232.734 68.88 233.204 69.008 233.726 69.008ZM246.532 70L249.236 62H250.532L247.812 70H246.532ZM241.092 70L243.796 62H244.996L242.324 70H241.092ZM241.028 70L238.308 62H239.604L242.276 70H241.028ZM246.532 70L243.86 62H245.076L247.748 70H246.532ZM254.615 70.192C254.029 70.192 253.517 70.1067 253.079 69.936C252.642 69.7547 252.274 69.52 251.975 69.232C251.687 68.944 251.479 68.6293 251.351 68.288L252.471 67.824C252.653 68.1867 252.925 68.48 253.287 68.704C253.65 68.928 254.05 69.04 254.487 69.04C254.989 69.04 255.41 68.944 255.751 68.752C256.093 68.5493 256.263 68.2667 256.263 67.904C256.263 67.5733 256.135 67.3067 255.879 67.104C255.634 66.9013 255.266 66.736 254.775 66.608L254.007 66.4C253.282 66.208 252.717 65.92 252.311 65.536C251.906 65.1413 251.703 64.6987 251.703 64.208C251.703 63.4507 251.949 62.864 252.439 62.448C252.941 62.0213 253.682 61.808 254.663 61.808C255.133 61.808 255.559 61.8773 255.943 62.016C256.327 62.1547 256.658 62.352 256.935 62.608C257.213 62.8533 257.415 63.1467 257.543 63.488L256.423 63.984C256.285 63.6213 256.055 63.36 255.735 63.2C255.415 63.04 255.026 62.96 254.567 62.96C254.077 62.96 253.693 63.0667 253.415 63.28C253.138 63.4827 252.999 63.7707 252.999 64.144C252.999 64.3573 253.111 64.56 253.335 64.752C253.57 64.9333 253.911 65.0827 254.359 65.2L255.159 65.408C255.682 65.536 256.119 65.728 256.471 65.984C256.823 66.2293 257.09 66.512 257.271 66.832C257.453 67.152 257.543 67.4933 257.543 67.856C257.543 68.336 257.415 68.752 257.159 69.104C256.903 69.456 256.557 69.728 256.119 69.92C255.682 70.1013 255.181 70.192 254.615 70.192ZM262.772 70.192C261.994 70.192 261.306 70.016 260.708 69.664C260.111 69.3013 259.642 68.8053 259.3 68.176C258.97 67.5467 258.804 66.8213 258.804 66C258.804 65.1787 258.97 64.4533 259.3 63.824C259.642 63.1947 260.106 62.704 260.692 62.352C261.29 61.9893 261.972 61.808 262.74 61.808C263.476 61.808 264.116 61.9947 264.66 62.368C265.215 62.7307 265.642 63.2427 265.94 63.904C266.239 64.5653 266.388 65.344 266.388 66.24H265.108C265.108 65.5573 265.018 64.976 264.836 64.496C264.655 64.0053 264.383 63.6267 264.02 63.36C263.668 63.0933 263.236 62.96 262.724 62.96C262.202 62.96 261.738 63.088 261.332 63.344C260.938 63.5893 260.634 63.9413 260.42 64.4C260.207 64.8587 260.1 65.3973 260.1 66.016C260.1 66.624 260.218 67.152 260.452 67.6C260.687 68.0373 261.012 68.384 261.428 68.64C261.844 68.8853 262.314 69.008 262.836 69.008C263.391 69.008 263.86 68.8747 264.244 68.608C264.628 68.3413 264.932 67.9947 265.156 67.568L266.276 68.128C266.074 68.544 265.802 68.9067 265.46 69.216C265.13 69.5253 264.735 69.7653 264.276 69.936C263.828 70.1067 263.327 70.192 262.772 70.192ZM259.652 66.24L259.668 65.136H265.604V66.24H259.652Z" fill="#605BFF"/>
<defs>
<linearGradient id="paint0_linear_22_2723" x1="121.658" y1="9.29766" x2="131.74" y2="26.6473" gradientUnits="userSpaceOnUse">
<stop stop-color="#18884F"/>
<stop offset="0.5" stop-color="#117E43"/>
<stop offset="1" stop-color="#0B6631"/>
</linearGradient>
<clipPath id="clip0_22_2723">
<rect width="29.9091" height="28" fill="white" transform="translate(119 4)"/>
</clipPath>
</defs>
</svg>
