<svg width="20" height="18" viewBox="0 0 20 18" fill="none" xmlns="http://www.w3.org/2000/svg">
<path fill-rule="evenodd" clip-rule="evenodd" d="M19.7872 7.47424C19.6518 7.61909 19.4681 7.70186 19.2747 7.70186C18.559 7.70186 17.9787 8.32264 17.9787 9.07792C17.9787 9.83838 18.5522 10.4561 19.2611 10.4643C19.6605 10.4685 20 10.7665 20 11.1938V13.8476C20 16.0814 18.3075 17.893 16.2186 17.893H13.0658C12.7398 17.893 12.4758 17.6106 12.4758 17.2619V15.0271C12.4758 14.5925 12.1567 14.2511 11.7505 14.2511C11.354 14.2511 11.0251 14.5925 11.0251 15.0271V17.2619C11.0251 17.6106 10.7611 17.893 10.4362 17.893H3.78143C1.70213 17.893 0 16.0824 0 13.8476V11.1938C0 10.7665 0.339458 10.4685 0.738878 10.4643C1.44874 10.4561 2.02128 9.83838 2.02128 9.07792C2.02128 8.34333 1.46035 7.78463 0.725339 7.78463C0.531915 7.78463 0.348162 7.70186 0.212766 7.55701C0.0773694 7.41216 0 7.21558 0 7.00865V4.32894C0 2.09826 1.706 0.273163 3.7911 0.273163H10.4362C10.7611 0.273163 11.0251 0.555619 11.0251 0.904291V3.55296C11.0251 3.97716 11.354 4.32894 11.7505 4.32894C12.1567 4.32894 12.4758 3.97716 12.4758 3.55296V0.904291C12.4758 0.555619 12.7398 0.273163 13.0658 0.273163H16.2186C18.3075 0.273163 20 2.08378 20 4.31859V6.92588C20 7.13281 19.9226 7.32939 19.7872 7.47424ZM11.7505 12.2439C12.1567 12.2439 12.4758 11.8921 12.4758 11.4679V7.32938C12.4758 6.90518 12.1567 6.55341 11.7505 6.55341C11.354 6.55341 11.0251 6.90518 11.0251 7.32938V11.4679C11.0251 11.8921 11.354 12.2439 11.7505 12.2439Z" fill="#030229"/>
</svg>
